<mxfile host="www.draw.io" modified="2023-04-12T12:41:56.859Z" agent="Mozilla/5.0 (Windows NT 10.0; Win64; x64) AppleWebKit/537.36 (KHTML, like Gecko) Chrome/112.0.0.0 Safari/537.36 Edg/112.0.1722.39" etag="Criqhks9DePBIVNVaDbP" version="21.1.6" type="device">
  <diagram name="Page-1" id="-CufFnEieAFLjEJ8hGsU">
    <mxGraphModel dx="1233" dy="573" grid="1" gridSize="10" guides="1" tooltips="1" connect="1" arrows="1" fold="1" page="1" pageScale="1" pageWidth="850" pageHeight="1100" math="0" shadow="0">
      <root>
        <mxCell id="0" />
        <mxCell id="1" parent="0" />
        <mxCell id="_dLiBeOyJwo7D4rWWiVQ-1" value="" style="ellipse;html=1;shape=startState;fillColor=#000000;strokeColor=#ff0000;" vertex="1" parent="1">
          <mxGeometry x="370" y="40" width="30" height="30" as="geometry" />
        </mxCell>
        <mxCell id="_dLiBeOyJwo7D4rWWiVQ-2" value="" style="edgeStyle=orthogonalEdgeStyle;html=1;verticalAlign=bottom;endArrow=open;endSize=8;strokeColor=#ff0000;rounded=0;" edge="1" parent="1" source="_dLiBeOyJwo7D4rWWiVQ-1">
          <mxGeometry relative="1" as="geometry">
            <mxPoint x="385" y="130" as="targetPoint" />
          </mxGeometry>
        </mxCell>
        <mxCell id="_dLiBeOyJwo7D4rWWiVQ-3" value="Masukan URL" style="rounded=1;whiteSpace=wrap;html=1;arcSize=40;fontColor=#000000;fillColor=#ffffc0;strokeColor=#ff0000;" vertex="1" parent="1">
          <mxGeometry x="325" y="130" width="120" height="40" as="geometry" />
        </mxCell>
        <mxCell id="_dLiBeOyJwo7D4rWWiVQ-4" value="" style="edgeStyle=orthogonalEdgeStyle;html=1;verticalAlign=bottom;endArrow=open;endSize=8;strokeColor=#ff0000;rounded=0;" edge="1" parent="1" source="_dLiBeOyJwo7D4rWWiVQ-3">
          <mxGeometry relative="1" as="geometry">
            <mxPoint x="385" y="230" as="targetPoint" />
          </mxGeometry>
        </mxCell>
        <mxCell id="_dLiBeOyJwo7D4rWWiVQ-5" value="Klik Button Login" style="rounded=1;whiteSpace=wrap;html=1;arcSize=40;fontColor=#000000;fillColor=#ffffc0;strokeColor=#ff0000;" vertex="1" parent="1">
          <mxGeometry x="325" y="230" width="120" height="40" as="geometry" />
        </mxCell>
        <mxCell id="_dLiBeOyJwo7D4rWWiVQ-6" value="" style="edgeStyle=orthogonalEdgeStyle;html=1;verticalAlign=bottom;endArrow=open;endSize=8;strokeColor=#ff0000;rounded=0;" edge="1" parent="1" source="_dLiBeOyJwo7D4rWWiVQ-5">
          <mxGeometry relative="1" as="geometry">
            <mxPoint x="385" y="330" as="targetPoint" />
          </mxGeometry>
        </mxCell>
        <mxCell id="_dLiBeOyJwo7D4rWWiVQ-7" value="Halaman Login" style="rounded=1;whiteSpace=wrap;html=1;arcSize=40;fontColor=#000000;fillColor=#ffffc0;strokeColor=#ff0000;" vertex="1" parent="1">
          <mxGeometry x="325" y="330" width="120" height="40" as="geometry" />
        </mxCell>
        <mxCell id="_dLiBeOyJwo7D4rWWiVQ-8" value="" style="edgeStyle=orthogonalEdgeStyle;html=1;verticalAlign=bottom;endArrow=open;endSize=8;strokeColor=#ff0000;rounded=0;" edge="1" parent="1" source="_dLiBeOyJwo7D4rWWiVQ-7">
          <mxGeometry relative="1" as="geometry">
            <mxPoint x="385" y="430" as="targetPoint" />
          </mxGeometry>
        </mxCell>
        <mxCell id="_dLiBeOyJwo7D4rWWiVQ-9" value="Input Email dan Password" style="rounded=1;whiteSpace=wrap;html=1;arcSize=40;fontColor=#000000;fillColor=#ffffc0;strokeColor=#ff0000;" vertex="1" parent="1">
          <mxGeometry x="325" y="430" width="120" height="40" as="geometry" />
        </mxCell>
        <mxCell id="_dLiBeOyJwo7D4rWWiVQ-10" value="" style="edgeStyle=orthogonalEdgeStyle;html=1;verticalAlign=bottom;endArrow=open;endSize=8;strokeColor=#ff0000;rounded=0;" edge="1" parent="1" source="_dLiBeOyJwo7D4rWWiVQ-9">
          <mxGeometry relative="1" as="geometry">
            <mxPoint x="385" y="530" as="targetPoint" />
          </mxGeometry>
        </mxCell>
        <mxCell id="_dLiBeOyJwo7D4rWWiVQ-11" value="Tampil Dashboard Siswa" style="rounded=1;whiteSpace=wrap;html=1;arcSize=40;fontColor=#000000;fillColor=#ffffc0;strokeColor=#ff0000;" vertex="1" parent="1">
          <mxGeometry x="325" y="530" width="120" height="40" as="geometry" />
        </mxCell>
        <mxCell id="_dLiBeOyJwo7D4rWWiVQ-12" value="" style="edgeStyle=orthogonalEdgeStyle;html=1;verticalAlign=bottom;endArrow=open;endSize=8;strokeColor=#ff0000;rounded=0;" edge="1" parent="1" source="_dLiBeOyJwo7D4rWWiVQ-11">
          <mxGeometry relative="1" as="geometry">
            <mxPoint x="385" y="630" as="targetPoint" />
          </mxGeometry>
        </mxCell>
        <mxCell id="_dLiBeOyJwo7D4rWWiVQ-13" value="" style="shape=line;html=1;strokeWidth=6;strokeColor=#ff0000;" vertex="1" parent="1">
          <mxGeometry x="40" y="630" width="640" height="10" as="geometry" />
        </mxCell>
        <mxCell id="_dLiBeOyJwo7D4rWWiVQ-14" value="" style="edgeStyle=orthogonalEdgeStyle;html=1;verticalAlign=bottom;endArrow=open;endSize=8;strokeColor=#ff0000;rounded=0;" edge="1" parent="1">
          <mxGeometry relative="1" as="geometry">
            <mxPoint x="100" y="680" as="targetPoint" />
            <mxPoint x="100" y="640" as="sourcePoint" />
          </mxGeometry>
        </mxCell>
        <mxCell id="_dLiBeOyJwo7D4rWWiVQ-15" value="Klik Dashboard" style="rounded=1;whiteSpace=wrap;html=1;arcSize=40;fontColor=#000000;fillColor=#ffffc0;strokeColor=#ff0000;" vertex="1" parent="1">
          <mxGeometry x="60" y="680" width="80" height="40" as="geometry" />
        </mxCell>
        <mxCell id="_dLiBeOyJwo7D4rWWiVQ-16" value="" style="edgeStyle=orthogonalEdgeStyle;html=1;verticalAlign=bottom;endArrow=open;endSize=8;strokeColor=#ff0000;rounded=0;" edge="1" parent="1" source="_dLiBeOyJwo7D4rWWiVQ-15">
          <mxGeometry relative="1" as="geometry">
            <mxPoint x="100" y="780" as="targetPoint" />
          </mxGeometry>
        </mxCell>
        <mxCell id="_dLiBeOyJwo7D4rWWiVQ-17" value="" style="edgeStyle=orthogonalEdgeStyle;html=1;verticalAlign=bottom;endArrow=open;endSize=8;strokeColor=#ff0000;rounded=0;" edge="1" parent="1">
          <mxGeometry relative="1" as="geometry">
            <mxPoint x="200" y="680" as="targetPoint" />
            <mxPoint x="200" y="640" as="sourcePoint" />
          </mxGeometry>
        </mxCell>
        <mxCell id="_dLiBeOyJwo7D4rWWiVQ-18" value="Klik Surat Masuk" style="rounded=1;whiteSpace=wrap;html=1;arcSize=40;fontColor=#000000;fillColor=#ffffc0;strokeColor=#ff0000;" vertex="1" parent="1">
          <mxGeometry x="160" y="680" width="80" height="40" as="geometry" />
        </mxCell>
        <mxCell id="_dLiBeOyJwo7D4rWWiVQ-19" value="" style="edgeStyle=orthogonalEdgeStyle;html=1;verticalAlign=bottom;endArrow=open;endSize=8;strokeColor=#ff0000;rounded=0;" edge="1" parent="1" source="_dLiBeOyJwo7D4rWWiVQ-18">
          <mxGeometry relative="1" as="geometry">
            <mxPoint x="200" y="780" as="targetPoint" />
          </mxGeometry>
        </mxCell>
        <mxCell id="_dLiBeOyJwo7D4rWWiVQ-20" value="" style="edgeStyle=orthogonalEdgeStyle;html=1;verticalAlign=bottom;endArrow=open;endSize=8;strokeColor=#ff0000;rounded=0;" edge="1" parent="1">
          <mxGeometry relative="1" as="geometry">
            <mxPoint x="300" y="680" as="targetPoint" />
            <mxPoint x="300" y="640" as="sourcePoint" />
          </mxGeometry>
        </mxCell>
        <mxCell id="_dLiBeOyJwo7D4rWWiVQ-21" value="Klik Surat Keluar" style="rounded=1;whiteSpace=wrap;html=1;arcSize=40;fontColor=#000000;fillColor=#ffffc0;strokeColor=#ff0000;" vertex="1" parent="1">
          <mxGeometry x="260" y="680" width="80" height="40" as="geometry" />
        </mxCell>
        <mxCell id="_dLiBeOyJwo7D4rWWiVQ-22" value="" style="edgeStyle=orthogonalEdgeStyle;html=1;verticalAlign=bottom;endArrow=open;endSize=8;strokeColor=#ff0000;rounded=0;" edge="1" parent="1" source="_dLiBeOyJwo7D4rWWiVQ-21">
          <mxGeometry relative="1" as="geometry">
            <mxPoint x="300" y="780" as="targetPoint" />
          </mxGeometry>
        </mxCell>
        <mxCell id="_dLiBeOyJwo7D4rWWiVQ-23" value="" style="edgeStyle=orthogonalEdgeStyle;html=1;verticalAlign=bottom;endArrow=open;endSize=8;strokeColor=#ff0000;rounded=0;" edge="1" parent="1">
          <mxGeometry relative="1" as="geometry">
            <mxPoint x="400" y="680" as="targetPoint" />
            <mxPoint x="400" y="640" as="sourcePoint" />
          </mxGeometry>
        </mxCell>
        <mxCell id="_dLiBeOyJwo7D4rWWiVQ-24" value="Klik Jadwal" style="rounded=1;whiteSpace=wrap;html=1;arcSize=40;fontColor=#000000;fillColor=#ffffc0;strokeColor=#ff0000;" vertex="1" parent="1">
          <mxGeometry x="360" y="680" width="80" height="40" as="geometry" />
        </mxCell>
        <mxCell id="_dLiBeOyJwo7D4rWWiVQ-25" value="" style="edgeStyle=orthogonalEdgeStyle;html=1;verticalAlign=bottom;endArrow=open;endSize=8;strokeColor=#ff0000;rounded=0;" edge="1" parent="1" source="_dLiBeOyJwo7D4rWWiVQ-24">
          <mxGeometry relative="1" as="geometry">
            <mxPoint x="400" y="780" as="targetPoint" />
          </mxGeometry>
        </mxCell>
        <mxCell id="_dLiBeOyJwo7D4rWWiVQ-26" value="" style="edgeStyle=orthogonalEdgeStyle;html=1;verticalAlign=bottom;endArrow=open;endSize=8;strokeColor=#ff0000;rounded=0;" edge="1" parent="1">
          <mxGeometry relative="1" as="geometry">
            <mxPoint x="500" y="680" as="targetPoint" />
            <mxPoint x="500" y="640" as="sourcePoint" />
          </mxGeometry>
        </mxCell>
        <mxCell id="_dLiBeOyJwo7D4rWWiVQ-27" value="Klik Cari Surat" style="rounded=1;whiteSpace=wrap;html=1;arcSize=40;fontColor=#000000;fillColor=#ffffc0;strokeColor=#ff0000;" vertex="1" parent="1">
          <mxGeometry x="460" y="680" width="80" height="40" as="geometry" />
        </mxCell>
        <mxCell id="_dLiBeOyJwo7D4rWWiVQ-28" value="" style="edgeStyle=orthogonalEdgeStyle;html=1;verticalAlign=bottom;endArrow=open;endSize=8;strokeColor=#ff0000;rounded=0;" edge="1" parent="1" source="_dLiBeOyJwo7D4rWWiVQ-27">
          <mxGeometry relative="1" as="geometry">
            <mxPoint x="500" y="780" as="targetPoint" />
          </mxGeometry>
        </mxCell>
        <mxCell id="_dLiBeOyJwo7D4rWWiVQ-29" value="" style="edgeStyle=orthogonalEdgeStyle;html=1;verticalAlign=bottom;endArrow=open;endSize=8;strokeColor=#ff0000;rounded=0;" edge="1" parent="1">
          <mxGeometry relative="1" as="geometry">
            <mxPoint x="600" y="680" as="targetPoint" />
            <mxPoint x="600" y="640" as="sourcePoint" />
          </mxGeometry>
        </mxCell>
        <mxCell id="_dLiBeOyJwo7D4rWWiVQ-30" value="Klik Ubah Profil" style="rounded=1;whiteSpace=wrap;html=1;arcSize=40;fontColor=#000000;fillColor=#ffffc0;strokeColor=#ff0000;" vertex="1" parent="1">
          <mxGeometry x="560" y="680" width="80" height="40" as="geometry" />
        </mxCell>
        <mxCell id="_dLiBeOyJwo7D4rWWiVQ-31" value="" style="edgeStyle=orthogonalEdgeStyle;html=1;verticalAlign=bottom;endArrow=open;endSize=8;strokeColor=#ff0000;rounded=0;" edge="1" parent="1" source="_dLiBeOyJwo7D4rWWiVQ-30">
          <mxGeometry relative="1" as="geometry">
            <mxPoint x="600" y="780" as="targetPoint" />
          </mxGeometry>
        </mxCell>
        <mxCell id="_dLiBeOyJwo7D4rWWiVQ-32" value="" style="ellipse;html=1;shape=endState;fillColor=#000000;strokeColor=#ff0000;" vertex="1" parent="1">
          <mxGeometry x="85" y="780" width="30" height="30" as="geometry" />
        </mxCell>
        <mxCell id="_dLiBeOyJwo7D4rWWiVQ-33" value="" style="ellipse;html=1;shape=endState;fillColor=#000000;strokeColor=#ff0000;" vertex="1" parent="1">
          <mxGeometry x="185" y="920" width="30" height="30" as="geometry" />
        </mxCell>
        <mxCell id="_dLiBeOyJwo7D4rWWiVQ-34" value="" style="ellipse;html=1;shape=endState;fillColor=#000000;strokeColor=#ff0000;" vertex="1" parent="1">
          <mxGeometry x="285" y="780" width="30" height="30" as="geometry" />
        </mxCell>
        <mxCell id="_dLiBeOyJwo7D4rWWiVQ-35" value="" style="ellipse;html=1;shape=endState;fillColor=#000000;strokeColor=#ff0000;" vertex="1" parent="1">
          <mxGeometry x="385" y="780" width="30" height="30" as="geometry" />
        </mxCell>
        <mxCell id="_dLiBeOyJwo7D4rWWiVQ-36" value="" style="ellipse;html=1;shape=endState;fillColor=#000000;strokeColor=#ff0000;" vertex="1" parent="1">
          <mxGeometry x="485" y="780" width="30" height="30" as="geometry" />
        </mxCell>
        <mxCell id="_dLiBeOyJwo7D4rWWiVQ-37" value="" style="ellipse;html=1;shape=endState;fillColor=#000000;strokeColor=#ff0000;" vertex="1" parent="1">
          <mxGeometry x="585" y="780" width="30" height="30" as="geometry" />
        </mxCell>
        <mxCell id="_dLiBeOyJwo7D4rWWiVQ-38" value="Klik Buat Surat" style="rounded=1;whiteSpace=wrap;html=1;arcSize=40;fontColor=#000000;fillColor=#ffffc0;strokeColor=#ff0000;" vertex="1" parent="1">
          <mxGeometry x="140" y="780" width="120" height="40" as="geometry" />
        </mxCell>
        <mxCell id="_dLiBeOyJwo7D4rWWiVQ-39" value="" style="edgeStyle=orthogonalEdgeStyle;html=1;verticalAlign=bottom;endArrow=open;endSize=8;strokeColor=#ff0000;rounded=0;entryX=0.5;entryY=0;entryDx=0;entryDy=0;" edge="1" parent="1" source="_dLiBeOyJwo7D4rWWiVQ-38" target="_dLiBeOyJwo7D4rWWiVQ-33">
          <mxGeometry relative="1" as="geometry">
            <mxPoint x="400" y="810" as="targetPoint" />
          </mxGeometry>
        </mxCell>
      </root>
    </mxGraphModel>
  </diagram>
</mxfile>
